<?xml version="1.0" encoding="UTF-8" standalone="no"?>
<svg
   xmlns:dc="http://purl.org/dc/elements/1.1/"
   xmlns:cc="http://creativecommons.org/ns#"
   xmlns:rdf="http://www.w3.org/1999/02/22-rdf-syntax-ns#"
   xmlns:svg="http://www.w3.org/2000/svg"
   xmlns="http://www.w3.org/2000/svg"
   xmlns:xlink="http://www.w3.org/1999/xlink"
   xmlns:sodipodi="http://sodipodi.sourceforge.net/DTD/sodipodi-0.dtd"
   xmlns:inkscape="http://www.inkscape.org/namespaces/inkscape"
   width="1024px"
   height="1024px"
   version="1.1"
   viewBox="0 0 1024 1024"
   id="svg26"
   sodipodi:docname="bit-slicer-update.svg"
   inkscape:version="0.92.4 (5da689c313, 2019-01-14)"
   enable-background="new">
  <metadata
     id="metadata30">
    <rdf:RDF>
      <cc:Work
         rdf:about="">
        <dc:format>image/svg+xml</dc:format>
        <dc:type
           rdf:resource="http://purl.org/dc/dcmitype/StillImage" />
        <dc:title>Icon-App-Name.iconset/icon_512x512@2x</dc:title>
      </cc:Work>
    </rdf:RDF>
  </metadata>
  <sodipodi:namedview
     pagecolor="#ffffff"
     bordercolor="#666666"
     borderopacity="1"
     objecttolerance="10"
     gridtolerance="10"
     guidetolerance="10"
     inkscape:pageopacity="0"
     inkscape:pageshadow="2"
     inkscape:window-width="1920"
     inkscape:window-height="1017"
     id="namedview28"
     showgrid="false"
     inkscape:zoom="0.62742626"
     inkscape:cx="173.32693"
     inkscape:cy="452.76249"
     inkscape:window-x="-8"
     inkscape:window-y="-8"
     inkscape:window-maximized="1"
     inkscape:current-layer="svg26"
     inkscape:snap-global="false" />
  <title
     id="title2">Icon-App-Name.iconset/icon_512x512@2x</title>
  <defs
     id="defs16">
    <linearGradient
       id="linearGradient1343"
       inkscape:collect="always">
      <stop
         id="stop1339"
         offset="0"
         style="stop-color:#fbfbfb;stop-opacity:1;" />
      <stop
         id="stop1341"
         offset="1"
         style="stop-color:#b6b6b6;stop-opacity:1" />
    </linearGradient>
    <linearGradient
       inkscape:collect="always"
       id="linearGradient1295">
      <stop
         style="stop-color:#fbfbfb;stop-opacity:1;"
         offset="0"
         id="stop1291" />
      <stop
         style="stop-color:#eeeeee;stop-opacity:1"
         offset="1"
         id="stop1293" />
    </linearGradient>
    <linearGradient
       inkscape:collect="always"
       id="linearGradient1231">
      <stop
         style="stop-color:#e4e5e5;stop-opacity:1;"
         offset="0"
         id="stop1227" />
      <stop
         style="stop-color:#d7d8d9;stop-opacity:1"
         offset="1"
         id="stop1229" />
    </linearGradient>
    <linearGradient
       inkscape:collect="always"
       id="linearGradient1134">
      <stop
         style="stop-color:#c0bdbe;stop-opacity:1"
         offset="0"
         id="stop1130" />
      <stop
         id="stop1142"
         offset="0.12037037"
         style="stop-color:#fdfdfd;stop-opacity:1" />
      <stop
         id="stop1138"
         offset="0.32921812"
         style="stop-color:#fdfdfd;stop-opacity:1" />
      <stop
         style="stop-color:#aaabae;stop-opacity:1"
         offset="0.50720167"
         id="stop1140" />
      <stop
         id="stop1144"
         offset="0.75360084"
         style="stop-color:#777b7f;stop-opacity:1" />
      <stop
         style="stop-color:#c2c3c5;stop-opacity:1"
         offset="0.87680042"
         id="stop1146" />
      <stop
         style="stop-color:#4d4d50;stop-opacity:1"
         offset="1"
         id="stop1132" />
    </linearGradient>
    <path
       id="path-1"
       d="m824 256.63c0-9.782 0-19.565-0.056099-29.348-0.048999-8.241-0.144-16.48-0.368-24.717-0.484-17.953-1.543-36.06-4.736-53.813-3.238-18.009-8.5259-34.77-16.859-51.133-8.1919-16.083-18.893-30.8-31.661-43.559-12.765-12.759-27.486-23.453-43.575-31.64-16.38-8.335-33.159-13.621-51.188-16.858-17.755-3.188-35.867-4.245-53.82-4.73-8.2429-0.223-16.486-0.317-24.731-0.368-9.7879-0.06-19.576-0.055-29.364-0.055l-113.65-0.407h-84.999l-111.64 0.407c-9.8069 0-19.614-5e-3 -29.421 0.055-8.2619 0.051-16.52 0.145-24.779 0.368-17.995 0.485-36.148 1.543-53.945 4.735-18.053 3.236-34.857 8.52-51.259 16.849-16.123 8.188-30.876 18.883-43.668 31.644-12.79 12.758-23.511 27.472-31.718 43.552-8.3559 16.371-13.654 33.142-16.9 51.161-3.196 17.746-4.255 35.847-4.742 53.792-0.222 8.238-0.318 16.477-0.368 24.717-0.06 9.784-0.563 21.937-0.563 31.72v196l0.508 112.43c0 9.796-4e-3 19.592 0.055 29.388 0.05 8.252 0.146 16.502 0.369 24.751 0.486 17.976 1.547 36.109 4.746 53.886 3.245 18.033 8.5419 34.818 16.891 51.202 8.2079 16.106 18.931 30.842 31.722 43.619s27.54 23.485 43.66 31.684c16.412 8.346 33.224 13.639 51.288 16.88 17.789 3.193 35.936 4.252 53.924 4.737 8.2589 0.223 16.518 0.318 24.78 0.368 9.8069 0.059 19.613 0.059 29.42 0.059h310.29c9.7879 0 19.576 0 29.364-0.059 8.2449-0.05 16.488-0.145 24.731-0.368 17.96-0.486 36.078-1.546 53.841-4.741 18.018-3.241 34.789-8.532 51.16-16.873 16.092-8.198 30.816-18.908 43.582-31.687 12.766-12.775 23.466-27.509 31.658-43.612 8.3379-16.392 13.626-33.185 16.866-51.23 3.19-17.77 4.248-35.896 4.733-53.865 0.223-8.25 0.318-16.5 0.367-24.751 0.056099-9.796 0.056099-19.592 0.056099-29.388v-310.8" />
    <filter
       id="filter-3"
       x="-2.4%"
       y="-1.2%"
       width="104.9%"
       height="104.9%">
      <feOffset
         dx="0"
         dy="10"
         in="SourceAlpha"
         result="shadowOffsetOuter1"
         id="feOffset5" />
      <feGaussianBlur
         in="shadowOffsetOuter1"
         result="shadowBlurOuter1"
         stdDeviation="5"
         id="feGaussianBlur7" />
      <feColorMatrix
         in="shadowBlurOuter1"
         values="0 0 0 0 0   0 0 0 0 0   0 0 0 0 0  0 0 0 0.3 0"
         id="feColorMatrix9" />
    </filter>
    <mask
       fill="white"
       id="mask14">
      <use
         width="100%"
         height="100%"
         xlink:href="#path-1"
         id="use12" />
    </mask>
    <filter
       id="filter-3-3"
       x="-0.024"
       y="-0.012"
       width="1.049"
       height="1.049">
      <feOffset
         dx="0"
         dy="10"
         in="SourceAlpha"
         result="shadowOffsetOuter1"
         id="feOffset5-1" />
      <feGaussianBlur
         in="shadowOffsetOuter1"
         result="shadowBlurOuter1"
         stdDeviation="5"
         id="feGaussianBlur7-3" />
      <feColorMatrix
         in="shadowBlurOuter1"
         values="0 0 0 0 0   0 0 0 0 0   0 0 0 0 0  0 0 0 0.3 0"
         id="feColorMatrix9-4" />
    </filter>
    <filter
       inkscape:collect="always"
       style="color-interpolation-filters:sRGB"
       id="filter4765"
       x="-0.014399938"
       width="1.0287999"
       y="-0.014400062"
       height="1.0288001">
      <feGaussianBlur
         inkscape:collect="always"
         stdDeviation="4.9440453"
         id="feGaussianBlur4767" />
    </filter>
    <linearGradient
       inkscape:collect="always"
       xlink:href="#linearGradient1134"
       id="linearGradient1156"
       x1="705.9397"
       y1="259.28986"
       x2="760.15363"
       y2="286.03839"
       gradientUnits="userSpaceOnUse" />
    <linearGradient
       inkscape:collect="always"
       xlink:href="#linearGradient1231"
       id="linearGradient1233"
       x1="583.63434"
       y1="646.00439"
       x2="536.8786"
       y2="627.09033"
       gradientUnits="userSpaceOnUse" />
    <linearGradient
       inkscape:collect="always"
       xlink:href="#linearGradient1295"
       id="linearGradient1297"
       x1="233.54678"
       y1="636.13647"
       x2="214.8098"
       y2="695.94775"
       gradientUnits="userSpaceOnUse" />
    <linearGradient
       inkscape:collect="always"
       xlink:href="#linearGradient1343"
       id="linearGradient1305"
       x1="239.57401"
       y1="790.3313"
       x2="220.3968"
       y2="730.88702"
       gradientUnits="userSpaceOnUse" />
    <filter
       inkscape:collect="always"
       style="color-interpolation-filters:sRGB"
       id="filter1547"
       x="-0.050166995"
       width="1.100334"
       y="-0.028072436"
       height="1.0561449">
      <feGaussianBlur
         inkscape:collect="always"
         stdDeviation="7.9532735"
         id="feGaussianBlur1549" />
    </filter>
  </defs>
  <path
     style="fill:#000000;fill-rule:evenodd;paint-order:stroke fill markers;filter:url(#filter4765);opacity:0.3"
     d="M 468.99219 110.00195 L 357.35352 110.41016 C 347.54662 110.41016 337.73864 110.40484 327.93164 110.46484 C 319.66974 110.51584 311.41134 110.60903 303.15234 110.83203 C 285.15734 111.31703 267.00403 112.37441 249.20703 115.56641 C 231.15403 118.80241 214.35122 124.08702 197.94922 132.41602 C 181.82622 140.60402 167.07325 151.29955 154.28125 164.06055 C 141.49125 176.81855 130.7695 191.53133 122.5625 207.61133 C 114.2066 223.98233 108.90811 240.75444 105.66211 258.77344 C 102.46611 276.51944 101.40888 294.61945 100.92188 312.56445 C 100.69988 320.80245 100.60273 329.0432 100.55273 337.2832 C 100.49273 347.0672 99.990234 359.21895 99.990234 369.00195 L 99.990234 565.00195 L 100.49805 677.43164 C 100.49805 681.32582 100.49901 685.22105 100.50195 689.11523 C 121.10977 697.40223 205.49187 720.3601 497.16992 711.91797 C 178.52109 734.60346 116.18836 763.98675 104.14258 775.68555 C 104.5936 778.95166 105.08394 782.21153 105.66797 785.45703 C 108.91297 803.49003 114.20949 820.27616 122.55859 836.66016 C 130.76649 852.76616 141.49025 867.50034 154.28125 880.27734 C 167.07225 893.05434 181.82141 903.76389 197.94141 911.96289 C 214.35341 920.30889 231.16452 925.6008 249.22852 928.8418 C 267.01752 932.0348 285.16434 933.09508 303.15234 933.58008 C 311.41124 933.80308 319.67159 933.89727 327.93359 933.94727 C 337.74049 934.00627 347.54652 934.00586 357.35352 934.00586 L 667.64258 934.00586 C 677.43048 934.00586 687.21981 934.00627 697.00781 933.94727 C 705.25271 933.89727 713.49528 933.80308 721.73828 933.58008 C 739.69828 933.09408 757.81513 932.03289 775.57812 928.83789 C 793.59613 925.59689 810.36728 920.30584 826.73828 911.96484 C 842.83028 903.76684 857.55431 893.05634 870.32031 880.27734 C 883.08631 867.50234 893.78652 852.76902 901.97852 836.66602 C 910.31642 820.27402 915.6057 803.48055 918.8457 785.43555 C 922.0357 767.66555 923.09313 749.54127 923.57812 731.57227 C 923.80112 723.32227 923.89631 715.07131 923.94531 706.82031 C 924.00141 697.02431 924.00195 687.22764 924.00195 677.43164 L 924.00195 366.63281 L 924 366.63086 C 924 356.84886 923.99946 347.0662 923.94336 337.2832 C 923.89436 329.0422 923.80017 320.80145 923.57617 312.56445 C 923.09217 294.61145 922.03284 276.50495 918.83984 258.75195 C 915.60184 240.74295 910.31357 223.98214 901.98047 207.61914 C 893.78857 191.53614 883.08831 176.81955 870.32031 164.06055 C 857.55531 151.30155 842.83314 140.60692 826.74414 132.41992 C 810.36414 124.08492 793.58564 118.7995 775.55664 115.5625 C 757.80164 112.3745 739.68933 111.31703 721.73633 110.83203 C 713.49343 110.60903 705.25086 110.51584 697.00586 110.46484 C 687.21796 110.40484 677.43058 110.41016 667.64258 110.41016 L 553.99219 110.00195 L 468.99219 110.00195 z "
     id="path24-3" />
  <path
     style="fill:#fbfbfb;fill-rule:evenodd;paint-order:stroke fill markers"
     d="M 468.99219 100.00195 L 357.35352 100.4082 C 347.54662 100.4082 337.73864 100.40484 327.93164 100.46484 C 319.66974 100.51584 311.41134 100.60903 303.15234 100.83203 C 285.15734 101.31703 267.00403 102.37441 249.20703 105.56641 C 231.15403 108.80241 214.35122 114.08702 197.94922 122.41602 C 181.82622 130.60402 167.07325 141.29955 154.28125 154.06055 C 141.49125 166.81855 130.7695 181.53133 122.5625 197.61133 C 114.2066 213.98233 108.90811 230.75444 105.66211 248.77344 C 102.46611 266.51944 101.40888 284.61945 100.92188 302.56445 C 100.69988 310.80245 100.60273 319.04125 100.55273 327.28125 C 100.49273 337.06525 99.990234 349.21895 99.990234 359.00195 L 99.990234 555.00195 L 100.49805 667.43164 C 100.49805 670.60649 100.50051 673.78218 100.50195 676.95703 C 121.10977 685.24403 205.49187 708.19995 497.16992 699.75781 C 176.0591 722.61858 115.24895 752.27675 103.88086 763.78906 C 104.39107 767.69126 104.97089 771.58334 105.66797 775.45703 C 108.91297 793.49003 114.20949 810.2742 122.55859 826.6582 C 130.76649 842.7642 141.49025 857.50034 154.28125 870.27734 C 167.07225 883.05434 181.82141 893.76389 197.94141 901.96289 C 214.35341 910.30889 231.16452 915.6008 249.22852 918.8418 C 267.01752 922.0348 285.16434 923.09312 303.15234 923.57812 C 311.41124 923.80112 319.67159 923.89727 327.93359 923.94727 C 337.74049 924.00627 347.54652 924.00586 357.35352 924.00586 L 667.64258 924.00586 C 677.43048 924.00586 687.21981 924.00627 697.00781 923.94727 C 705.25271 923.89727 713.49528 923.80112 721.73828 923.57812 C 739.69828 923.09213 757.81513 922.03289 775.57812 918.83789 C 793.59613 915.59689 810.36728 910.30584 826.73828 901.96484 C 842.83028 893.76684 857.55431 883.05634 870.32031 870.27734 C 883.08631 857.50234 893.78652 842.76902 901.97852 826.66602 C 910.31642 810.27402 915.6057 793.48055 918.8457 775.43555 C 922.0357 757.66555 923.09313 739.53931 923.57812 721.57031 C 923.80112 713.32031 923.89631 705.07131 923.94531 696.82031 C 924.00141 687.02431 924.00195 677.22764 924.00195 667.43164 L 924.00195 356.63281 L 924 356.63086 C 924 346.84886 923.99946 337.06425 923.94336 327.28125 C 923.89436 319.04025 923.80017 310.80145 923.57617 302.56445 C 923.09217 284.61145 922.03284 266.50495 918.83984 248.75195 C 915.60184 230.74295 910.31357 213.98214 901.98047 197.61914 C 893.78857 181.53614 883.08831 166.81955 870.32031 154.06055 C 857.55531 141.30155 842.83314 130.60692 826.74414 122.41992 C 810.36414 114.08492 793.58564 108.7995 775.55664 105.5625 C 757.80164 102.3745 739.68933 101.31703 721.73633 100.83203 C 713.49343 100.60903 705.25086 100.51584 697.00586 100.46484 C 687.21796 100.40484 677.43058 100.4082 667.64258 100.4082 L 553.99219 100.00195 L 468.99219 100.00195 z "
     id="path24" />
  <style
     type="text/css"
     id="style22">.specularity {opacity:0.5;}
	.low-specularity {opacity:0.25;}
	.full-specularity {opacity:1;}
	.black {fill:#000000;}
	.white {fill:#ffffff;}
	.outline-big {stroke-width:16;stroke:none;opacity:0.1;fill:none;}
	.outline-small {stroke-width:8;stroke:none;opacity:0.2;fill:none;}
	.stroke-highlight {fill:none;stroke:none;opacity:0.2;}
       	.base-shadow 	{fill:black;opacity:75;}</style>
  <path
     style="fill:url(#linearGradient1297);stroke:none;stroke-width:1px;stroke-linecap:butt;stroke-linejoin:miter;stroke-opacity:1;fill-opacity:1"
     d="M 101.32617 590.32812 L 100.16797 594.49609 L 100.49805 667.43164 C 100.49805 670.60649 100.49995 673.78218 100.50195 676.95703 C 121.10977 685.24403 205.49187 708.19995 497.16992 699.75781 L 101.32617 590.32812 z "
     id="path1263" />
  <path
     style="fill:url(#linearGradient1305);fill-opacity:1;stroke:none;stroke-width:1px;stroke-linecap:butt;stroke-linejoin:miter;stroke-opacity:1"
     d="M 497.16992 699.75781 C 176.0591 722.61858 115.24895 752.27675 103.88086 763.78906 C 104.39107 767.69126 104.97089 771.58334 105.66797 775.45703 C 108.91297 793.49003 114.20949 810.2742 122.55859 826.6582 C 127.2499 835.86375 132.76627 844.61981 139.01758 852.82031 C 238.01076 848.62212 521.0328 825.62353 497.16992 699.75781 z "
     id="path1265" />
  <g
     id="g1008">
    <path
       d="m 242.57825,251.59116 q 0,26.60015 -8.35816,39.07103 -8.29183,12.40458 -25.80415,12.40458 -17.77765,0 -26.00315,-12.60357 -8.15913,-12.60357 -8.15913,-38.73938 0,-26.33483 8.29179,-38.87203 8.29183,-12.60358 25.87049,-12.60358 17.77768,0 25.93681,12.80256 8.2255,12.73624 8.2255,38.54039 z m -17.44599,30.11586 q 2.32169,-5.3731 3.11773,-12.60353 0.86232,-7.29682 0.86232,-17.51233 0,-10.08286 -0.86232,-17.51232 -0.79604,-7.42947 -3.18406,-12.60357 -2.32173,-5.10778 -6.36812,-7.69483 -3.98009,-2.58705 -10.28187,-2.58705 -6.23546,0 -10.34818,2.58705 -4.04641,2.58705 -6.43445,7.82749 -2.25539,4.90875 -3.11773,12.80256 -0.79602,7.89381 -0.79602,17.31333 0,10.34817 0.7297,17.31329 0.72966,6.96516 3.11769,12.47092 2.18907,5.1741 6.16913,7.89382 4.04642,2.71971 10.67986,2.71971 6.23546,0 10.34821,-2.58706 4.11271,-2.58704 6.36811,-7.82748 z"
       style="font-style:normal;font-variant:normal;font-weight:normal;font-stretch:normal;font-size:40px;line-height:1.25;font-family:sans-serif;-inkscape-font-specification:sans-serif;letter-spacing:0px;word-spacing:0px;fill:#000000;fill-opacity:1;stroke:none;stroke-width:3.39632893"
       id="path954"
       inkscape:connector-curvature="0" />
    <path
       d="m 323.57272,301.0104 h -53.46566 v -10.08285 h 20.56372 v -66.20189 h -20.56372 v -9.02151 q 4.17908,0 8.95517,-0.66333 4.77609,-0.7297 7.23048,-2.05637 3.05139,-1.65836 4.77609,-4.17909 1.79102,-2.58705 2.05637,-6.89879 h 10.28184 v 89.02098 h 20.16571 z"
       style="font-style:normal;font-variant:normal;font-weight:normal;font-stretch:normal;font-size:40px;line-height:1.25;font-family:sans-serif;-inkscape-font-specification:sans-serif;letter-spacing:0px;word-spacing:0px;fill:#000000;fill-opacity:1;stroke:none;stroke-width:3.39632893"
       id="path956"
       inkscape:connector-curvature="0" />
    <path
       d="m 415.57876,251.59116 q 0,26.60015 -8.35817,39.07103 -8.29183,12.40458 -25.80415,12.40458 -17.77764,0 -26.00314,-12.60357 -8.15914,-12.60357 -8.15914,-38.73938 0,-26.33483 8.2918,-38.87203 8.29183,-12.60358 25.87048,-12.60358 17.77768,0 25.93681,12.80256 8.22551,12.73624 8.22551,38.54039 z m -17.446,30.11586 q 2.3217,-5.3731 3.11773,-12.60353 0.86233,-7.29682 0.86233,-17.51233 0,-10.08286 -0.86233,-17.51232 -0.79603,-7.42947 -3.18405,-12.60357 -2.32173,-5.10778 -6.36812,-7.69483 -3.98009,-2.58705 -10.28188,-2.58705 -6.23546,0 -10.34817,2.58705 -4.04642,2.58705 -6.43445,7.82749 -2.25539,4.90875 -3.11773,12.80256 -0.79602,7.89381 -0.79602,17.31333 0,10.34817 0.72969,17.31329 0.72967,6.96516 3.1177,12.47092 2.18907,5.1741 6.16912,7.89382 4.04643,2.71971 10.67986,2.71971 6.23546,0 10.34821,-2.58706 4.11272,-2.58704 6.36811,-7.82748 z"
       style="font-style:normal;font-variant:normal;font-weight:normal;font-stretch:normal;font-size:40px;line-height:1.25;font-family:sans-serif;-inkscape-font-specification:sans-serif;letter-spacing:0px;word-spacing:0px;fill:#000000;fill-opacity:1;stroke:none;stroke-width:3.39632893"
       id="path958"
       inkscape:connector-curvature="0" />
    <path
       d="m 502.07901,251.59116 q 0,26.60015 -8.35817,39.07103 -8.29183,12.40458 -25.80415,12.40458 -17.77764,0 -26.00313,-12.60357 -8.15915,-12.60357 -8.15915,-38.73938 0,-26.33483 8.2918,-38.87203 8.29184,-12.60358 25.87048,-12.60358 17.77768,0 25.93682,12.80256 8.2255,12.73624 8.2255,38.54039 z m -17.44599,30.11586 q 2.32169,-5.3731 3.11773,-12.60353 0.86232,-7.29682 0.86232,-17.51233 0,-10.08286 -0.86232,-17.51232 -0.79604,-7.42947 -3.18406,-12.60357 -2.32173,-5.10778 -6.36812,-7.69483 -3.98009,-2.58705 -10.28188,-2.58705 -6.23545,0 -10.34817,2.58705 -4.04642,2.58705 -6.43445,7.82749 -2.25539,4.90875 -3.11773,12.80256 -0.79602,7.89381 -0.79602,17.31333 0,10.34817 0.7297,17.31329 0.72966,6.96516 3.11769,12.47092 2.18907,5.1741 6.16912,7.89382 4.04643,2.71971 10.67986,2.71971 6.23546,0 10.34822,-2.58706 4.11271,-2.58704 6.36811,-7.82748 z"
       style="font-style:normal;font-variant:normal;font-weight:normal;font-stretch:normal;font-size:40px;line-height:1.25;font-family:sans-serif;-inkscape-font-specification:sans-serif;letter-spacing:0px;word-spacing:0px;fill:#000000;fill-opacity:1;stroke:none;stroke-width:3.39632893"
       id="path960"
       inkscape:connector-curvature="0" />
    <path
       d="m 583.07348,301.0104 h -53.46566 v -10.08285 h 20.56371 v -66.20189 h -20.56371 v -9.02151 q 4.17908,0 8.95517,-0.66333 4.77608,-0.7297 7.23048,-2.05637 3.05139,-1.65836 4.77609,-4.17909 1.79102,-2.58705 2.05637,-6.89879 h 10.28185 v 89.02098 h 20.1657 z"
       style="font-style:normal;font-variant:normal;font-weight:normal;font-stretch:normal;font-size:40px;line-height:1.25;font-family:sans-serif;-inkscape-font-specification:sans-serif;letter-spacing:0px;word-spacing:0px;fill:#000000;fill-opacity:1;stroke:none;stroke-width:3.39632893"
       id="path962"
       inkscape:connector-curvature="0" />
    <path
       d="m 675.07952,251.59116 q 0,26.60015 -8.35817,39.07103 -8.29183,12.40458 -25.80415,12.40458 -17.77764,0 -26.00314,-12.60357 -8.15914,-12.60357 -8.15914,-38.73938 0,-26.33483 8.29179,-38.87203 8.29184,-12.60358 25.87049,-12.60358 17.77768,0 25.93681,12.80256 8.22551,12.73624 8.22551,38.54039 z m -17.446,30.11586 q 2.3217,-5.3731 3.11773,-12.60353 0.86233,-7.29682 0.86233,-17.51233 0,-10.08286 -0.86233,-17.51232 -0.79603,-7.42947 -3.18405,-12.60357 -2.32174,-5.10778 -6.36813,-7.69483 -3.98008,-2.58705 -10.28187,-2.58705 -6.23546,0 -10.34817,2.58705 -4.04642,2.58705 -6.43445,7.82749 -2.2554,4.90875 -3.11773,12.80256 -0.79603,7.89381 -0.79603,17.31333 0,10.34817 0.7297,17.31329 0.72967,6.96516 3.1177,12.47092 2.18906,5.1741 6.16912,7.89382 4.04642,2.71971 10.67986,2.71971 6.23546,0 10.34821,-2.58706 4.11272,-2.58704 6.36811,-7.82748 z"
       style="font-style:normal;font-variant:normal;font-weight:normal;font-stretch:normal;font-size:40px;line-height:1.25;font-family:sans-serif;-inkscape-font-specification:sans-serif;letter-spacing:0px;word-spacing:0px;fill:#000000;fill-opacity:1;stroke:none;stroke-width:3.39632893"
       id="path964"
       inkscape:connector-curvature="0" />
    <path
       d="m 756.07398,301.0104 h -53.46565 v -10.08285 h 20.56371 v -66.20189 h -20.56371 v -9.02151 q 4.17907,0 8.95516,-0.66333 4.77609,-0.7297 7.23048,-2.05637 3.0514,-1.65836 4.77609,-4.17909 1.79102,-2.58705 2.05637,-6.89879 h 10.28185 v 89.02098 h 20.1657 z"
       style="font-style:normal;font-variant:normal;font-weight:normal;font-stretch:normal;font-size:40px;line-height:1.25;font-family:sans-serif;-inkscape-font-specification:sans-serif;letter-spacing:0px;word-spacing:0px;fill:#000000;fill-opacity:1;stroke:none;stroke-width:3.39632893"
       id="path966"
       inkscape:connector-curvature="0" />
    <path
       d="m 842.57424,301.0104 h -53.46566 v -10.08285 h 20.56371 v -66.20189 h -20.56371 v -9.02151 q 4.17908,0 8.95516,-0.66333 4.77609,-0.7297 7.23049,-2.05637 3.05139,-1.65836 4.77608,-4.17909 1.79102,-2.58705 2.05637,-6.89879 h 10.28185 v 89.02098 h 20.16571 z"
       style="font-style:normal;font-variant:normal;font-weight:normal;font-stretch:normal;font-size:40px;line-height:1.25;font-family:sans-serif;-inkscape-font-specification:sans-serif;letter-spacing:0px;word-spacing:0px;fill:#000000;fill-opacity:1;stroke:none;stroke-width:3.39632893"
       id="path968"
       inkscape:connector-curvature="0" />
    <path
       d="m 237.07247,475.34152 h -53.46566 v -10.08285 h 20.56371 v -66.20189 h -20.56371 v -9.0215 q 4.17908,0 8.95517,-0.66334 4.77608,-0.72967 7.23048,-2.05638 3.05139,-1.65836 4.77608,-4.17908 1.79102,-2.58702 2.05638,-6.89879 h 10.28183 v 89.02098 h 20.16572 z"
       style="font-style:normal;font-variant:normal;font-weight:normal;font-stretch:normal;font-size:40px;line-height:1.25;font-family:sans-serif;-inkscape-font-specification:sans-serif;letter-spacing:0px;word-spacing:0px;fill:#000000;fill-opacity:1;stroke:none;stroke-width:3.39632893"
       id="path970"
       inkscape:connector-curvature="0" />
    <path
       d="m 323.57272,475.34152 h -53.46566 v -10.08285 h 20.56372 v -66.20189 h -20.56372 v -9.0215 q 4.17908,0 8.95517,-0.66334 4.77609,-0.72967 7.23048,-2.05638 3.05139,-1.65836 4.77609,-4.17908 1.79102,-2.58702 2.05637,-6.89879 h 10.28184 v 89.02098 h 20.16571 z"
       style="font-style:normal;font-variant:normal;font-weight:normal;font-stretch:normal;font-size:40px;line-height:1.25;font-family:sans-serif;-inkscape-font-specification:sans-serif;letter-spacing:0px;word-spacing:0px;fill:#000000;fill-opacity:1;stroke:none;stroke-width:3.39632893"
       id="path972"
       inkscape:connector-curvature="0" />
    <path
       d="m 415.57876,425.92228 q 0,26.60015 -8.35817,39.07106 -8.29183,12.40455 -25.80415,12.40455 -17.77764,0 -26.00314,-12.60357 -8.15914,-12.60354 -8.15914,-38.73938 0,-26.3348 8.2918,-38.87203 8.29183,-12.60358 25.87048,-12.60358 17.77768,0 25.93681,12.80257 8.22551,12.73623 8.22551,38.54038 z m -17.446,30.1159 q 2.3217,-5.3731 3.11773,-12.60358 0.86233,-7.29681 0.86233,-17.51232 0,-10.08285 -0.86233,-17.51232 -0.79603,-7.42947 -3.18405,-12.60357 -2.32173,-5.10774 -6.36812,-7.6948 -3.98009,-2.58704 -10.28188,-2.58704 -6.23546,0 -10.34817,2.58704 -4.04642,2.58706 -6.43445,7.82749 -2.25539,4.90875 -3.11773,12.80256 -0.79602,7.89382 -0.79602,17.3133 0,10.34821 0.72969,17.31333 0.72967,6.96512 3.1177,12.47088 2.18907,5.1741 6.16912,7.89381 4.04643,2.71972 10.67986,2.71972 6.23546,0 10.34821,-2.58702 4.11272,-2.58706 6.36811,-7.82748 z"
       style="font-style:normal;font-variant:normal;font-weight:normal;font-stretch:normal;font-size:40px;line-height:1.25;font-family:sans-serif;-inkscape-font-specification:sans-serif;letter-spacing:0px;word-spacing:0px;fill:#000000;fill-opacity:1;stroke:none;stroke-width:3.39632893"
       id="path974"
       inkscape:connector-curvature="0" />
    <path
       d="m 496.57322,475.34152 h -53.46565 v -10.08285 h 20.56371 v -66.20189 h -20.56371 v -9.0215 q 4.17908,0 8.95516,-0.66334 4.77609,-0.72967 7.23048,-2.05638 3.0514,-1.65836 4.77609,-4.17908 1.79102,-2.58702 2.05637,-6.89879 h 10.28185 v 89.02098 h 20.1657 z"
       style="font-style:normal;font-variant:normal;font-weight:normal;font-stretch:normal;font-size:40px;line-height:1.25;font-family:sans-serif;-inkscape-font-specification:sans-serif;letter-spacing:0px;word-spacing:0px;fill:#000000;fill-opacity:1;stroke:none;stroke-width:3.39632893"
       id="path976"
       inkscape:connector-curvature="0" />
    <path
       d="m 583.07348,475.34152 h -53.46566 v -10.08285 h 20.56371 v -66.20189 h -20.56371 v -9.0215 q 4.17908,0 8.95517,-0.66334 4.77608,-0.72967 7.23048,-2.05638 3.05139,-1.65836 4.77609,-4.17908 1.79102,-2.58702 2.05637,-6.89879 h 10.28185 v 89.02098 h 20.1657 z"
       style="font-style:normal;font-variant:normal;font-weight:normal;font-stretch:normal;font-size:40px;line-height:1.25;font-family:sans-serif;-inkscape-font-specification:sans-serif;letter-spacing:0px;word-spacing:0px;fill:#000000;fill-opacity:1;stroke:none;stroke-width:3.39632893"
       id="path978"
       inkscape:connector-curvature="0" />
    <path
       d="m 669.57373,475.34152 h -53.46566 v -10.08285 h 20.56372 v -66.20189 h -20.56372 v -9.0215 q 4.17908,0 8.95517,-0.66334 4.77609,-0.72967 7.23048,-2.05638 3.05139,-1.65836 4.77609,-4.17908 1.79102,-2.58702 2.05637,-6.89879 h 10.28185 v 89.02098 h 20.1657 z"
       style="font-style:normal;font-variant:normal;font-weight:normal;font-stretch:normal;font-size:40px;line-height:1.25;font-family:sans-serif;-inkscape-font-specification:sans-serif;letter-spacing:0px;word-spacing:0px;fill:#000000;fill-opacity:1;stroke:none;stroke-width:3.39632893"
       id="path980"
       inkscape:connector-curvature="0" />
    <path
       d="m 761.57977,425.92228 q 0,26.60015 -8.35817,39.07106 -8.29183,12.40455 -25.80415,12.40455 -17.77764,0 -26.00314,-12.60357 -8.15914,-12.60354 -8.15914,-38.73938 0,-26.3348 8.2918,-38.87203 8.29184,-12.60358 25.87048,-12.60358 17.77768,0 25.93682,12.80257 8.2255,12.73623 8.2255,38.54038 z m -17.446,30.1159 q 2.3217,-5.3731 3.11773,-12.60358 0.86234,-7.29681 0.86234,-17.51232 0,-10.08285 -0.86234,-17.51232 -0.79603,-7.42947 -3.18405,-12.60357 -2.32173,-5.10774 -6.36812,-7.6948 -3.98009,-2.58704 -10.28188,-2.58704 -6.23546,0 -10.34817,2.58704 -4.04642,2.58706 -6.43445,7.82749 -2.25539,4.90875 -3.11772,12.80256 -0.79603,7.89382 -0.79603,17.3133 0,10.34821 0.7297,17.31333 0.72967,6.96512 3.11769,12.47088 2.18907,5.1741 6.16912,7.89381 4.04643,2.71972 10.67986,2.71972 6.23546,0 10.34821,-2.58702 4.11272,-2.58706 6.36811,-7.82748 z"
       style="font-style:normal;font-variant:normal;font-weight:normal;font-stretch:normal;font-size:40px;line-height:1.25;font-family:sans-serif;-inkscape-font-specification:sans-serif;letter-spacing:0px;word-spacing:0px;fill:#000000;fill-opacity:1;stroke:none;stroke-width:3.39632893"
       id="path982"
       inkscape:connector-curvature="0" />
    <path
       d="m 848.08002,425.92228 q 0,26.60015 -8.35816,39.07106 -8.29183,12.40455 -25.80415,12.40455 -17.77765,0 -26.00314,-12.60357 -8.15914,-12.60354 -8.15914,-38.73938 0,-26.3348 8.2918,-38.87203 8.29183,-12.60358 25.87048,-12.60358 17.77768,0 25.93681,12.80257 8.2255,12.73623 8.2255,38.54038 z m -17.44599,30.1159 q 2.3217,-5.3731 3.11773,-12.60358 0.86233,-7.29681 0.86233,-17.51232 0,-10.08285 -0.86233,-17.51232 -0.79603,-7.42947 -3.18406,-12.60357 -2.32173,-5.10774 -6.36812,-7.6948 -3.98009,-2.58704 -10.28187,-2.58704 -6.23546,0 -10.34818,2.58704 -4.04642,2.58706 -6.43445,7.82749 -2.25539,4.90875 -3.11772,12.80256 -0.79603,7.89382 -0.79603,17.3133 0,10.34821 0.7297,17.31333 0.72967,6.96512 3.11769,12.47088 2.18907,5.1741 6.16913,7.89381 4.04642,2.71972 10.67986,2.71972 6.23545,0 10.34821,-2.58702 4.11271,-2.58706 6.36811,-7.82748 z"
       style="font-style:normal;font-variant:normal;font-weight:normal;font-stretch:normal;font-size:40px;line-height:1.25;font-family:sans-serif;-inkscape-font-specification:sans-serif;letter-spacing:0px;word-spacing:0px;fill:#000000;fill-opacity:1;stroke:none;stroke-width:3.39632893"
       id="path984"
       inkscape:connector-curvature="0" />
    <path
       id="path986"
       d="m 294.66211,548.95117 c -9.54022,-0.2552 -19.58054,3.78221 -25.04377,11.85253 -6.2304,9.52439 -8.0225,21.11125 -8.60011,32.26713 -0.85415,12.94389 0.91812,26.52354 7.72627,37.78954 5.99648,10.04269 16.31842,17.93222 28.1266,19.30992 8.35605,1.05992 17.43272,-2.15616 22.43554,-9.11756 5.98837,-7.72831 7.98194,-17.63993 8.98303,-27.14963 1.26161,-12.18039 0.82433,-24.56473 -1.47835,-36.59586 -1.81181,-8.10031 -5.15079,-16.32401 -11.59445,-21.84013 -5.70838,-4.67422 -13.24994,-6.74821 -20.55476,-6.51594 z m -88.25781,-0.002 c -9.89488,0.15128 -20.03086,5.28547 -24.74251,14.21445 -5.69686,10.32808 -6.98499,22.3589 -7.26837,33.95863 -0.11898,8.76265 1.392,18.07794 6.96296,25.12837 5.70729,6.89323 14.48062,10.24399 23.02642,11.96842 9.53687,2.00339 19.46014,3.83647 29.16399,1.91739 5.01936,-1.61012 8.12127,-6.82443 8.33241,-11.92444 1.43314,-9.8688 0.56476,-19.86196 0.46997,-29.78429 -0.50605,-11.19404 -2.11544,-22.8005 -8.02591,-32.5458 -4.65479,-7.38523 -12.96135,-12.28663 -21.68599,-12.74733 -2.07207,-0.18345 -4.15406,-0.20682 -6.23297,-0.1854 z m 173.13086,2.66992 c -0.62565,6.85316 -7.31051,12.01404 -13.99324,12.02566 -2.72898,0.36154 -5.47938,0.50846 -8.22551,0.67356 -1.52835,2.32738 -0.12798,5.18026 -0.8418,7.69726 0.13179,1.63917 2.19081,1.59231 3.39124,1.37305 5.76867,0 11.53735,0 17.30603,0 -10e-6,22.06706 -10e-6,44.13412 0,66.20117 -6.85482,0 -13.70964,0 -20.56446,0 0,3.36068 0,6.72136 0,10.08204 17.82162,0 35.64323,-10e-6 53.46485,0 0,-3.36068 0,-6.72136 0,-10.08204 -6.72136,0 -13.44271,0 -20.16407,0 0,-29.67382 0,-59.34765 0,-89.02148 -3.42773,0 -6.85547,0 -10.2832,0 -0.0299,0.35026 -0.0599,0.70052 -0.0898,1.05078 z m -83.1543,8.22461 c 8.5691,0.0901 15.95894,7.51073 16.96468,15.85686 2.84227,12.20157 2.13921,24.8256 1.78324,37.24107 -0.53499,7.65701 -1.89032,15.63795 -6.37231,22.05525 -4.74661,5.45598 -13.2799,6.3148 -19.54782,3.13586 -6.80606,-3.09068 -11.17762,-9.95871 -12.80804,-17.06996 -2.59381,-9.69349 -1.9949,-19.83012 -1.85272,-29.75679 0.32319,-7.82859 1.02319,-15.96047 4.71984,-23.01416 3.01431,-5.18882 8.88841,-8.64124 14.92962,-8.41623 0.72774,-0.0281 1.45521,-0.0441 2.18351,-0.0319 z m -85.66016,0.0469 c 8.3854,0.51822 15.26369,7.96688 16.22105,16.12866 2.80607,12.41126 1.72768,25.21446 2.46693,37.81838 0.0554,4.53775 0.31657,9.50615 -2.21677,13.48975 -2.9074,3.17032 -7.59131,3.22127 -11.56745,2.88649 -7.68866,-0.38204 -15.83413,-2.5135 -21.30776,-8.24376 -4.82025,-5.38399 -6.03834,-12.9004 -6.19186,-19.88526 -0.34519,-10.81405 -0.33392,-22.02902 3.77866,-32.21947 2.74722,-5.98218 9.11244,-10.33512 15.79474,-9.96024 1.00697,-0.0359 2.01508,-0.0131 3.02246,-0.0145 z"
       style="font-style:normal;font-variant:normal;font-weight:normal;font-stretch:normal;font-size:40px;line-height:1.25;font-family:sans-serif;-inkscape-font-specification:sans-serif;letter-spacing:0px;word-spacing:0px;fill:#000000;fill-opacity:1;stroke:none;stroke-width:3.39632893"
       inkscape:connector-curvature="0" />
    <path
       d="m 502.07901,600.25343 q 0,26.60015 -8.35817,39.07104 -8.29183,12.40458 -25.80415,12.40458 -17.77764,0 -26.00313,-12.60358 -8.15915,-12.60357 -8.15915,-38.73937 0,-26.33484 8.2918,-38.87205 8.29184,-12.60357 25.87048,-12.60357 17.77768,0 25.93682,12.80257 8.2255,12.73623 8.2255,38.54038 z m -17.44599,30.11586 q 2.32169,-5.37309 3.11773,-12.60354 0.86232,-7.2968 0.86232,-17.51232 0,-10.08285 -0.86232,-17.51232 -0.79604,-7.42947 -3.18406,-12.60357 -2.32173,-5.10777 -6.36812,-7.69482 -3.98009,-2.58706 -10.28188,-2.58706 -6.23545,0 -10.34817,2.58706 -4.04642,2.58705 -6.43445,7.82748 -2.25539,4.90875 -3.11773,12.80256 -0.79602,7.89382 -0.79602,17.31334 0,10.34817 0.7297,17.31329 0.72966,6.96516 3.11769,12.47091 2.18907,5.17411 6.16912,7.89382 4.04643,2.71971 10.67986,2.71971 6.23546,0 10.34822,-2.58705 4.11271,-2.58705 6.36811,-7.82749 z"
       style="font-style:normal;font-variant:normal;font-weight:normal;font-stretch:normal;font-size:40px;line-height:1.25;font-family:sans-serif;-inkscape-font-specification:sans-serif;letter-spacing:0px;word-spacing:0px;fill:#000000;fill-opacity:1;stroke:none;stroke-width:3.39632893"
       id="path992"
       inkscape:connector-curvature="0" />
    <path
       d="m 583.07348,649.67267 h -53.46566 v -10.08285 h 20.56371 v -66.20189 h -20.56371 v -9.0215 q 4.17908,0 8.95517,-0.66334 4.77608,-0.7297 7.23048,-2.05637 3.05139,-1.65836 4.77609,-4.17908 1.79102,-2.58706 2.05637,-6.8988 h 10.28185 v 89.02098 h 20.1657 z"
       style="font-style:normal;font-variant:normal;font-weight:normal;font-stretch:normal;font-size:40px;line-height:1.25;font-family:sans-serif;-inkscape-font-specification:sans-serif;letter-spacing:0px;word-spacing:0px;fill:#000000;fill-opacity:1;stroke:none;stroke-width:3.39632893"
       id="path994"
       inkscape:connector-curvature="0" />
    <path
       d="m 675.07952,600.25343 q 0,26.60015 -8.35817,39.07104 -8.29183,12.40458 -25.80415,12.40458 -17.77764,0 -26.00314,-12.60358 -8.15914,-12.60357 -8.15914,-38.73937 0,-26.33484 8.29179,-38.87205 8.29184,-12.60357 25.87049,-12.60357 17.77768,0 25.93681,12.80257 8.22551,12.73623 8.22551,38.54038 z m -17.446,30.11586 q 2.3217,-5.37309 3.11773,-12.60354 0.86233,-7.2968 0.86233,-17.51232 0,-10.08285 -0.86233,-17.51232 -0.79603,-7.42947 -3.18405,-12.60357 -2.32174,-5.10777 -6.36813,-7.69482 -3.98008,-2.58706 -10.28187,-2.58706 -6.23546,0 -10.34817,2.58706 -4.04642,2.58705 -6.43445,7.82748 -2.2554,4.90875 -3.11773,12.80256 -0.79603,7.89382 -0.79603,17.31334 0,10.34817 0.7297,17.31329 0.72967,6.96516 3.1177,12.47091 2.18906,5.17411 6.16912,7.89382 4.04642,2.71971 10.67986,2.71971 6.23546,0 10.34821,-2.58705 4.11272,-2.58705 6.36811,-7.82749 z"
       style="font-style:normal;font-variant:normal;font-weight:normal;font-stretch:normal;font-size:40px;line-height:1.25;font-family:sans-serif;-inkscape-font-specification:sans-serif;letter-spacing:0px;word-spacing:0px;fill:#000000;fill-opacity:1;stroke:none;stroke-width:3.39632893"
       id="path996"
       inkscape:connector-curvature="0" />
    <path
       d="m 756.07398,649.67267 h -53.46565 v -10.08285 h 20.56371 v -66.20189 h -20.56371 v -9.0215 q 4.17907,0 8.95516,-0.66334 4.77609,-0.7297 7.23048,-2.05637 3.0514,-1.65836 4.77609,-4.17908 1.79102,-2.58706 2.05637,-6.8988 h 10.28185 v 89.02098 h 20.1657 z"
       style="font-style:normal;font-variant:normal;font-weight:normal;font-stretch:normal;font-size:40px;line-height:1.25;font-family:sans-serif;-inkscape-font-specification:sans-serif;letter-spacing:0px;word-spacing:0px;fill:#000000;fill-opacity:1;stroke:none;stroke-width:3.39632893"
       id="path998"
       inkscape:connector-curvature="0" />
    <path
       d="m 848.08002,600.25343 q 0,26.60015 -8.35816,39.07104 -8.29183,12.40458 -25.80415,12.40458 -17.77765,0 -26.00314,-12.60358 -8.15914,-12.60357 -8.15914,-38.73937 0,-26.33484 8.2918,-38.87205 8.29183,-12.60357 25.87048,-12.60357 17.77768,0 25.93681,12.80257 8.2255,12.73623 8.2255,38.54038 z m -17.44599,30.11586 q 2.3217,-5.37309 3.11773,-12.60354 0.86233,-7.2968 0.86233,-17.51232 0,-10.08285 -0.86233,-17.51232 -0.79603,-7.42947 -3.18406,-12.60357 -2.32173,-5.10777 -6.36812,-7.69482 -3.98009,-2.58706 -10.28187,-2.58706 -6.23546,0 -10.34818,2.58706 -4.04642,2.58705 -6.43445,7.82748 -2.25539,4.90875 -3.11772,12.80256 -0.79603,7.89382 -0.79603,17.31334 0,10.34817 0.7297,17.31329 0.72967,6.96516 3.11769,12.47091 2.18907,5.17411 6.16913,7.89382 4.04642,2.71971 10.67986,2.71971 6.23545,0 10.34821,-2.58705 4.11271,-2.58705 6.36811,-7.82749 z"
       style="font-style:normal;font-variant:normal;font-weight:normal;font-stretch:normal;font-size:40px;line-height:1.25;font-family:sans-serif;-inkscape-font-specification:sans-serif;letter-spacing:0px;word-spacing:0px;fill:#000000;fill-opacity:1;stroke:none;stroke-width:3.39632893"
       id="path1000"
       inkscape:connector-curvature="0" />
    <path
       id="path1002"
       d="m 380.05078,723.16602 c -11.87947,-0.002 -23.67471,7.73519 -27.49018,19.14677 -5.03051,13.1737 -5.44977,27.54832 -4.69321,41.46883 0.74638,10.3899 2.6304,21.08695 8.24394,30.04455 5.65916,8.28649 15.89483,12.62348 25.76286,12.37655 10.3087,-0.1347 20.84074,-5.2396 26.12972,-14.30819 4.6429,-7.89608 5.85205,-17.18585 6.79826,-26.13861 1.03056,-12.28771 0.31519,-24.77123 -2.51135,-36.78544 -2.13282,-7.96205 -6.0155,-16.0149 -13.05254,-20.73025 -5.63645,-3.71476 -12.50165,-5.19029 -19.1875,-5.07421 z m -74.95898,5.91406 c -10.02284,1.45625 -19.33729,5.81571 -28.15453,10.61517 -5.5398,3.11357 -10.98209,7.34331 -13.21042,13.52333 -2.92155,7.5013 -2.54533,15.70588 -2.61227,23.61042 0.16777,12.15538 1.61863,24.7364 7.52019,35.57139 4.95886,8.55347 14.84087,13.30212 24.49881,13.75416 10.53181,0.56269 21.64718,-4.00944 27.5436,-12.9928 5.29351,-8.02527 6.64846,-17.81291 7.58109,-27.17768 1.13866,-12.89408 0.39506,-26.04348 -2.93255,-38.58006 -1.77007,-6.11831 -4.5556,-12.42086 -9.89017,-16.22823 -3.06896,-1.90224 -6.80732,-2.31671 -10.34375,-2.0957 z m 77.50976,5.0332 c 9.82621,0.591 18.03831,9.83858 17.88867,19.60352 1.84454,16.41789 2.32744,33.32981 -2.0039,49.41797 -3.10258,9.35746 -14.8287,14.85683 -23.90868,10.75661 -6.81788,-2.69343 -11.22086,-9.72138 -11.88488,-16.86686 -2.36702,-12.03615 -1.62779,-24.37556 -1.13114,-36.54723 0.64481,-7.22073 2.13175,-14.75291 6.62626,-20.63587 3.64053,-3.92332 9.08991,-6.00759 14.41367,-5.72814 z m -81.01172,3.57813 c 6.93657,0.80232 12.2049,7.4823 12.26726,14.31187 1.84764,16.75073 2.6427,34.00673 -1.72819,50.4518 -2.6699,9.71859 -14.67287,15.65534 -23.94472,11.50207 -7.17489,-2.92665 -11.80903,-10.44155 -12.23462,-18.04511 -1.98746,-12.30928 -1.46067,-24.84442 -0.68769,-37.23384 0.64639,-5.96703 3.14475,-12.19953 8.39985,-15.53009 5.20616,-3.58938 11.57842,-5.71493 17.92811,-5.4567 z m -84.9414,3.44921 c -10.96441,0.17693 -21.73915,2.87627 -31.9968,6.59788 -6.05663,3.15093 -9.40815,10.02823 -9.53752,16.68606 -1.12541,10.26241 -0.40619,20.65293 1.16799,30.82689 1.60106,8.31616 4.52392,16.79183 10.53973,22.97359 8.16978,7.5478 20.40754,9.51234 30.93793,6.61871 8.73435,-2.40689 16.37044,-8.98189 19.42372,-17.59496 4.74192,-11.39566 4.97764,-23.96667 5.00941,-36.12351 -0.0199,-8.08727 -0.77918,-16.33571 -3.82376,-23.90067 -3.09382,-4.35624 -8.74698,-5.75828 -13.82242,-5.83432 -2.62826,-0.18982 -5.26323,-0.27606 -7.89828,-0.24967 z m 0.90234,3.55665 c 3.77271,0.13521 7.79194,1.75942 9.58008,5.28515 1.23775,2.19598 1.27074,4.77054 1.12486,7.20803 0.81253,15.28645 1.39261,30.93428 -2.73706,45.83529 -2.96569,9.01685 -13.90759,14.6967 -22.89825,11.25562 -7.12568,-2.34759 -12.12137,-9.36323 -12.8149,-16.72511 -2.39429,-11.51979 -1.85933,-23.37243 -1.28945,-35.04488 0.51908,-5.05386 2.30627,-10.60149 6.90476,-13.35688 6.54677,-4.08282 14.61484,-4.6108 22.12996,-4.45722 z"
       style="font-style:normal;font-variant:normal;font-weight:normal;font-stretch:normal;font-size:40px;line-height:1.25;font-family:sans-serif;-inkscape-font-specification:sans-serif;letter-spacing:0px;word-spacing:0px;fill:#000000;fill-opacity:1;stroke:none;stroke-width:3.39632893"
       inkscape:connector-curvature="0" />
    <path
       d="m 496.57322,824.00379 h -53.46565 v -10.08285 h 20.56371 v -66.20189 h -20.56371 v -9.0215 q 4.17908,0 8.95516,-0.66334 4.77609,-0.72966 7.23048,-2.05637 3.0514,-1.65836 4.77609,-4.17908 1.79102,-2.58705 2.05637,-6.89879 h 10.28185 v 89.02097 h 20.1657 z"
       style="font-style:normal;font-variant:normal;font-weight:normal;font-stretch:normal;font-size:40px;line-height:1.25;font-family:sans-serif;-inkscape-font-specification:sans-serif;letter-spacing:0px;word-spacing:0px;fill:#000000;fill-opacity:1;stroke:none;stroke-width:3.39632893"
       id="path1008"
       inkscape:connector-curvature="0" />
    <path
       d="m 588.57926,774.58456 q 0,26.60015 -8.35816,39.07105 -8.29183,12.40456 -25.80415,12.40456 -17.77765,0 -26.00314,-12.60358 -8.15914,-12.60357 -8.15914,-38.73937 0,-26.3348 8.29179,-38.87204 8.29184,-12.60357 25.87049,-12.60357 17.77768,0 25.93681,12.80255 8.2255,12.73624 8.2255,38.5404 z m -17.44599,30.11589 q 2.32169,-5.37309 3.11773,-12.60357 0.86232,-7.29681 0.86232,-17.51232 0,-10.08285 -0.86232,-17.51232 -0.79604,-7.42947 -3.18406,-12.60358 -2.32173,-5.10774 -6.36812,-7.69479 -3.98009,-2.58705 -10.28187,-2.58705 -6.23546,0 -10.34818,2.58705 -4.04641,2.58705 -6.43444,7.82745 -2.2554,4.90878 -3.11773,12.8026 -0.79603,7.89378 -0.79603,17.3133 0,10.3482 0.7297,17.31332 0.72967,6.96513 3.11769,12.47088 2.18907,5.1741 6.16913,7.89382 4.04642,2.71971 10.67986,2.71971 6.23546,0 10.34821,-2.58705 4.11271,-2.58702 6.36811,-7.82745 z"
       style="font-style:normal;font-variant:normal;font-weight:normal;font-stretch:normal;font-size:40px;line-height:1.25;font-family:sans-serif;-inkscape-font-specification:sans-serif;letter-spacing:0px;word-spacing:0px;fill:#000000;fill-opacity:1;stroke:none;stroke-width:3.39632893"
       id="path1010"
       inkscape:connector-curvature="0" />
    <path
       d="m 669.57373,824.00379 h -53.46566 v -10.08285 h 20.56372 v -66.20189 h -20.56372 v -9.0215 q 4.17908,0 8.95517,-0.66334 4.77609,-0.72966 7.23048,-2.05637 3.05139,-1.65836 4.77609,-4.17908 1.79102,-2.58705 2.05637,-6.89879 h 10.28185 v 89.02097 h 20.1657 z"
       style="font-style:normal;font-variant:normal;font-weight:normal;font-stretch:normal;font-size:40px;line-height:1.25;font-family:sans-serif;-inkscape-font-specification:sans-serif;letter-spacing:0px;word-spacing:0px;fill:#000000;fill-opacity:1;stroke:none;stroke-width:3.39632893"
       id="path1012"
       inkscape:connector-curvature="0" />
    <path
       d="m 761.57977,774.58456 q 0,26.60015 -8.35817,39.07105 -8.29183,12.40456 -25.80415,12.40456 -17.77764,0 -26.00314,-12.60358 -8.15914,-12.60357 -8.15914,-38.73937 0,-26.3348 8.2918,-38.87204 8.29184,-12.60357 25.87048,-12.60357 17.77768,0 25.93682,12.80255 8.2255,12.73624 8.2255,38.5404 z m -17.446,30.11589 q 2.3217,-5.37309 3.11773,-12.60357 0.86234,-7.29681 0.86234,-17.51232 0,-10.08285 -0.86234,-17.51232 -0.79603,-7.42947 -3.18405,-12.60358 -2.32173,-5.10774 -6.36812,-7.69479 -3.98009,-2.58705 -10.28188,-2.58705 -6.23546,0 -10.34817,2.58705 -4.04642,2.58705 -6.43445,7.82745 -2.25539,4.90878 -3.11772,12.8026 -0.79603,7.89378 -0.79603,17.3133 0,10.3482 0.7297,17.31332 0.72967,6.96513 3.11769,12.47088 2.18907,5.1741 6.16912,7.89382 4.04643,2.71971 10.67986,2.71971 6.23546,0 10.34821,-2.58705 4.11272,-2.58702 6.36811,-7.82745 z"
       style="font-style:normal;font-variant:normal;font-weight:normal;font-stretch:normal;font-size:40px;line-height:1.25;font-family:sans-serif;-inkscape-font-specification:sans-serif;letter-spacing:0px;word-spacing:0px;fill:#000000;fill-opacity:1;stroke:none;stroke-width:3.39632893"
       id="path1014"
       inkscape:connector-curvature="0" />
    <path
       d="m 848.08002,774.58456 q 0,26.60015 -8.35816,39.07105 -8.29183,12.40456 -25.80415,12.40456 -17.77765,0 -26.00314,-12.60358 -8.15914,-12.60357 -8.15914,-38.73937 0,-26.3348 8.2918,-38.87204 8.29183,-12.60357 25.87048,-12.60357 17.77768,0 25.93681,12.80255 8.2255,12.73624 8.2255,38.5404 z m -17.44599,30.11589 q 2.3217,-5.37309 3.11773,-12.60357 0.86233,-7.29681 0.86233,-17.51232 0,-10.08285 -0.86233,-17.51232 -0.79603,-7.42947 -3.18406,-12.60358 -2.32173,-5.10774 -6.36812,-7.69479 -3.98009,-2.58705 -10.28187,-2.58705 -6.23546,0 -10.34818,2.58705 -4.04642,2.58705 -6.43445,7.82745 -2.25539,4.90878 -3.11772,12.8026 -0.79603,7.89378 -0.79603,17.3133 0,10.3482 0.7297,17.31332 0.72967,6.96513 3.11769,12.47088 2.18907,5.1741 6.16913,7.89382 4.04642,2.71971 10.67986,2.71971 6.23545,0 10.34821,-2.58705 4.11271,-2.58702 6.36811,-7.82745 z"
       style="font-style:normal;font-variant:normal;font-weight:normal;font-stretch:normal;font-size:40px;line-height:1.25;font-family:sans-serif;-inkscape-font-specification:sans-serif;letter-spacing:0px;word-spacing:0px;fill:#000000;fill-opacity:1;stroke:none;stroke-width:3.39632893"
       id="path1016"
       inkscape:connector-curvature="0" />
  </g>
  <g
     id="g1017"
     transform="matrix(1.3265537,-0.01728608,0.01728608,1.3265537,-277.12728,50.601889)">
    <path
       inkscape:connector-curvature="0"
       id="path1081-6"
       d="m 827.60938,31.973501 c -5.81253,-0.273 -8.91211,7.802735 -8.91211,7.802735 L 553.54883,580.14343 c -0.14347,1.10624 -0.27286,2.058 -0.41406,3.12304 l -0.90235,-0.47265 -55.0625,129.12304 138.51563,-74.71484 -1.53516,-11.42188 -27.34766,-14.35156 c 0.12507,-0.0869 0.24996,-0.17704 0.375,-0.26367 L 876.01562,68.434439 c 0,0 5.17945,-9.682404 -2.86718,-14.328125 -13.56623,-7.832465 -28.46698,-13.185114 -42.03321,-21.017578 -1.25991,-0.727413 -2.42946,-1.064679 -3.50585,-1.115235 z"
       style="opacity:0.3;fill:#000000;stroke:none;stroke-width:1.2213552px;stroke-linecap:butt;stroke-linejoin:miter;stroke-opacity:1;filter:url(#filter1547)" />
    <path
       sodipodi:nodetypes="ccccc"
       inkscape:connector-curvature="0"
       id="path1081"
       d="M 497.16998,699.75871 635.68611,625.04237 634.151,613.62028 554.56505,630.72252 Z"
       style="fill:#a2a3a3;stroke:none;stroke-width:1.2213552px;stroke-linecap:butt;stroke-linejoin:miter;stroke-opacity:1" />
    <path
       sodipodi:nodetypes="cccc"
       inkscape:connector-curvature="0"
       id="path1079"
       d="M 497.16998,699.75871 552.2315,570.63402 634.151,613.62028 Z"
       style="fill:url(#linearGradient1233);fill-opacity:1;stroke:none;stroke-width:1.2213552px;stroke-linecap:butt;stroke-linejoin:miter;stroke-opacity:1" />
    <path
       sodipodi:nodetypes="csccsscc"
       inkscape:connector-curvature="0"
       id="path1083"
       d="m 553.54904,567.98391 c -3.67008,28.29967 -6.89249,42.98041 5.30443,50.96674 11.7769,7.71131 30.18393,-7.37671 48.32485,-19.94551 L 876.01475,56.275965 c 0,0 5.18071,-9.683855 -2.86592,-14.329576 -13.56623,-7.832465 -28.46719,-13.184246 -42.03342,-21.016711 -8.06346,-4.65544 -12.41897,6.687135 -12.41897,6.687135 z"
       style="fill:url(#linearGradient1156);fill-opacity:1;stroke:none;stroke-width:1px;stroke-linecap:butt;stroke-linejoin:miter;stroke-opacity:1" />
    <path
       id="path1087"
       d="m 607.23242,458.58008 -53.68359,109.4043 c -0.032,0.24695 -0.0598,0.45237 -0.0918,0.69726 l 53.05469,30.79297 c 0.22222,-0.15463 0.44386,-0.31483 0.66601,-0.46875 l 54.77344,-110.57813 z"
       style="opacity:0.25;fill:#000000;stroke:none;stroke-width:1px;stroke-linecap:butt;stroke-linejoin:miter;stroke-opacity:1"
       inkscape:connector-curvature="0" />
    <path
       id="path1083-8"
       d="m 827.60938,19.814453 c -5.81253,-0.273 -8.91211,7.802735 -8.91211,7.802735 l -0.88086,1.796874 c 2.07766,-2.615811 5.42053,-5.003147 9.92187,-2.404296 13.56623,7.832465 28.46697,13.18316 42.0332,21.015625 8.04663,4.645721 2.86524,14.330078 2.86524,14.330078 L 606.61523,599.40039 c 0.18746,-0.13036 0.37509,-0.26468 0.5625,-0.39453 L 876.01562,56.275391 c 0,0 5.17945,-9.682404 -2.86718,-14.328125 -13.56623,-7.832465 -28.46698,-13.185114 -42.03321,-21.017578 -1.25991,-0.727413 -2.42946,-1.064679 -3.50585,-1.115235 z"
       style="opacity:0.55;fill:#000000;fill-opacity:1;stroke:none;stroke-width:1px;stroke-linecap:butt;stroke-linejoin:miter;stroke-opacity:1"
       inkscape:connector-curvature="0" />
    <path
       id="path1085"
       d="m 631.94531,408.21484 -5.09179,10.37696 55.44921,28.75195 4.28125,-8.64453 z"
       style="opacity:0.55;fill:#000000;stroke:none;stroke-width:1px;stroke-linecap:butt;stroke-linejoin:miter;stroke-opacity:1"
       inkscape:connector-curvature="0" />
  </g>
</svg>
